<?xml version="1.0" encoding="utf-8"?>
<!-- Generator: Adobe Illustrator 17.0.0, SVG Export Plug-In . SVG Version: 6.00 Build 0)  -->
<!DOCTYPE svg PUBLIC "-//W3C//DTD SVG 1.1//EN" "http://www.w3.org/Graphics/SVG/1.1/DTD/svg11.dtd">
<svg version="1.1" id="Laag_1" xmlns="http://www.w3.org/2000/svg" xmlns:xlink="http://www.w3.org/1999/xlink" x="0px" y="0px"
	 width="139.726px" height="139.726px" viewBox="0 0 139.726 139.726" enable-background="new 0 0 139.726 139.726"
	 xml:space="preserve">
<g>
	<g>
		<polygon fill="#334444" points="20.719,119.007 0.363,69.863 20.719,20.719 69.863,0.363 119.007,20.719 139.363,69.863 
			119.007,119.007 69.863,139.363 		"/>
	</g>
	<polygon fill="#476969" points="20.719,119.007 0.363,69.863 20.719,20.719 62.281,3.503 91.718,43.375 139.363,69.863 
		119.007,119.007 69.863,139.363 	"/>
	<polygon fill="#5C8F8F" points="20.719,119.007 0.363,69.863 20.719,20.719 59.255,28.12 85.178,57.311 117.081,81.359 
		119.007,119.007 69.863,139.363 	"/>
	<path fill="#70B4B4" d="M20.719,119.007L0.363,69.863l16.778-40.506c0,0,13.122,14.328,21.637,22.844s38.005,18.675,38.005,18.675
		s16.288,22.196,19.816,25.724c3.528,3.528,16.621,24.805,16.621,24.805l-43.357,17.959L20.719,119.007z"/>
	<path fill="#85DADA" d="M20.719,119.007L0.363,69.863l7.925-19.134c0,0,9.854-0.004,20.739,10.881s8.62,16.447,18.212,26.039
		s18.066,14.462,25.725,22.122s18.753,20.539,18.753,20.539l-21.855,9.053L20.719,119.007z"/>
	<path fill="#99FFFF" d="M20.719,119.007L0.363,69.863c0,0,6.994,4.974,14.171,12.152c7.177,7.177,13.068,4.222,22.606,13.76
		s6.368,10.627,18.838,23.098s20.327,17.822,20.327,17.822l-6.443,2.669L20.719,119.007z"/>
	<path fill="#EE6644" d="M0.363,69.863l20.356,49.144l49.144,20.356l-42.891-26.989L0.363,69.863z"/>
</g>
</svg>
