<?xml version="1.0" standalone="no"?>
<!DOCTYPE svg PUBLIC "-//W3C//DTD SVG 20010904//EN"
 "http://www.w3.org/TR/2001/REC-SVG-20010904/DTD/svg10.dtd">
<svg version="1.0" xmlns="http://www.w3.org/2000/svg"
 width="700.000000pt" height="700.000000pt" viewBox="0 0 700.000000 700.000000"
 preserveAspectRatio="xMidYMid meet">
<metadata>
Created by potrace 1.11, written by Peter Selinger 2001-2013
</metadata>
<g transform="translate(0.000000,700.000000) scale(0.100000,-0.100000)"
fill="#000000" stroke="none">
<path d="M3400 6959 c-52 -22 -151 -63 -220 -91 -69 -28 -129 -54 -134 -59 -6
-5 -16 -9 -24 -9 -7 0 -32 -9 -55 -19 -23 -10 -186 -78 -362 -151 -176 -73
-333 -138 -350 -145 -16 -8 -97 -41 -180 -75 -82 -33 -159 -65 -170 -70 -39
-18 -505 -210 -510 -210 -2 0 -34 -13 -70 -30 -36 -16 -68 -30 -71 -30 -3 0
-26 -9 -52 -21 -26 -11 -56 -24 -67 -28 -11 -4 -41 -17 -66 -28 l-45 -21 -149
-358 c-81 -198 -188 -456 -237 -574 -48 -118 -97 -235 -108 -260 -10 -25 -38
-90 -60 -145 -23 -55 -45 -109 -50 -120 -5 -11 -25 -60 -45 -110 -20 -49 -44
-103 -53 -120 -9 -16 -15 -30 -13 -30 3 0 -91 -235 -154 -380 -7 -16 -27 -66
-45 -110 -65 -158 -91 -220 -101 -240 -11 -22 -13 -16 161 -435 56 -135 110
-265 120 -290 30 -76 91 -223 105 -255 8 -16 30 -70 50 -118 20 -48 41 -100
47 -115 6 -15 12 -29 13 -32 1 -3 7 -16 12 -30 6 -14 40 -95 75 -180 36 -85
147 -355 248 -599 l184 -444 46 -19 c25 -11 59 -26 75 -33 17 -7 66 -28 110
-45 44 -17 143 -58 220 -90 77 -32 196 -82 265 -110 69 -29 141 -59 160 -67
19 -8 44 -19 55 -23 56 -23 201 -83 285 -118 52 -22 183 -76 290 -120 107 -44
332 -138 500 -207 168 -70 342 -142 388 -161 l83 -33 207 85 c114 47 221 91
237 99 17 7 174 72 350 145 362 149 481 198 510 211 73 31 1034 429 1060 439
11 4 22 7 25 7 3 0 24 10 47 21 33 17 45 31 59 69 10 27 20 53 24 58 4 6 17
37 30 70 13 33 31 78 40 100 10 22 43 103 75 180 31 77 61 149 65 160 5 11 35
81 65 155 31 74 62 149 70 165 7 17 39 93 70 170 31 77 63 154 70 170 7 17 27
66 45 110 18 44 46 109 61 145 15 36 98 236 184 445 86 209 168 405 182 437
23 52 24 58 10 90 -8 18 -23 56 -35 83 -63 152 -126 303 -167 405 -26 63 -53
129 -60 145 -7 17 -52 125 -100 240 -84 204 -386 935 -407 985 -6 14 -63 151
-127 304 l-116 280 -115 48 c-63 27 -123 53 -132 58 -10 6 -22 10 -28 10 -5 0
-33 11 -62 24 -29 13 -93 40 -143 60 -49 20 -99 41 -110 46 -11 5 -60 26 -110
46 -49 20 -103 42 -120 50 -16 7 -95 40 -175 72 -227 93 -372 153 -405 167
-24 10 -211 88 -590 244 -11 5 -31 13 -45 19 -14 6 -65 28 -115 48 -49 20
-103 42 -120 49 -43 20 -203 85 -207 85 -2 0 -46 -19 -98 -41z"/>
</g>
</svg>
