<svg xmlns="http://www.w3.org/2000/svg" xmlns:xlink="http://www.w3.org/1999/xlink" width="53" height="53" viewBox="0 0 53 53">
  <defs>
    <polygon id="logo-studio-alloy-a" points="53 26.5 45.238 7.762 26.5 0 7.762 7.762 0 26.5 7.762 45.238 26.5 53 45.238 45.238"/>
  </defs>
  <g fill="none" fill-rule="evenodd">
    <mask id="logo-studio-alloy-b" fill="#fff">
      <use xlink:href="#logo-studio-alloy-a"/>
    </mask>
    <g mask="url(#logo-studio-alloy-b)">
      <g transform="translate(-18.435 -18.435)">
        <polygon fill="#E64" points="89.644 49.214 40.656 .226 .108 40.774 49.095 89.762"/>
        <polygon fill="#9FF" fill-rule="nonzero" points="40.656 .226 7.374 33.508 18.801 44.935 28.806 60.92 44.935 71.068 56.362 82.495 89.644 49.214"/>
        <path fill="#85DADA" fill-rule="nonzero" d="M40.6830873,0.252687648 L6.71427178,34.2218792 L18.8432789,44.925758 L18.8282379,44.9618563 C18.8282379,44.9618563 18.9508215,45.0494697 19.1602665,45.2058954 C19.9454031,45.7913637 22.026692,47.4007433 24.1568639,49.5312912 C26.855583,52.2300104 29.0707362,51.1188616 32.6572463,54.7053717 C36.1971295,58.2452549 35.0859807,58.6930986 39.5647941,63.2128985 C39.6238297,63.2726862 39.6798572,63.3298417 39.740773,63.3907575 C43.8969583,67.5476949 46.685547,69.5970218 47.266127,70.0095194 L58.7592787,80.1523715 L89.6710249,49.2406253 L40.6830873,0.252687648 Z"/>
        <path fill="#70B4B4" fill-rule="nonzero" d="M40.6560136,0.225613971 L12.2828006,28.598827 L20.9005023,36.8596826 C20.9005023,36.8596826 26.6186884,38.8710311 30.3311663,42.583885 C34.4241797,46.6768985 33.572487,48.767964 37.1793023,52.3747793 C40.7861177,55.9815947 43.972539,57.8132041 46.8525014,60.6931665 C49.4166041,63.2576453 53.0019862,67.3743482 53.758169,68.2474743 C53.8514228,68.3550169 53.9044421,68.4163087 53.9044421,68.4163087 L53.9254994,68.4072842 L62.3736145,76.4831363 L89.6435752,49.2131756 L40.6560136,0.225613971 Z"/>
        <path fill="#5C8F8F" fill-rule="nonzero" d="M40.6560136,0.225613971 L17.9979785,22.8836491 L25.111587,29.6994472 L25.110083,29.7035834 C25.110459,29.7039594 30.0442605,35.091245 33.2464748,38.2934593 C33.9631752,39.0101597 35.0765801,39.757694 36.3708523,40.4868032 C40.8583142,43.0144317 47.5368637,45.3156942 47.5368637,45.3156942 C47.5368637,45.3156942 53.661531,53.661907 54.9881412,54.9888932 C56.3057268,56.3064788 61.1680839,64.2022158 61.235016,64.3108865 C61.2357681,64.3112625 61.2380242,64.3157748 61.2380242,64.3157748 L61.2395283,64.3153988 L68.033141,70.8247379 L89.6443273,49.2135516 L40.6560136,0.225613971 Z"/>
        <polygon fill="#476969" fill-rule="nonzero" points="40.656 .226 20.441 20.441 26.455 26.455 40.946 29.238 50.694 40.215 62.69 49.258 63.414 63.414 69.429 69.429 89.644 49.214"/>
        <polygon fill="#344" fill-rule="nonzero" points="89.659 49.199 40.671 .211 30.604 10.278 43.678 21.546 43.657 21.555 54.726 36.547 72.641 46.508 72.641 46.506 83.227 55.63"/>
      </g>
    </g>
  </g>
</svg>
